<svg width="24" height="23" viewBox="0 0 24 23" fill="none" xmlns="http://www.w3.org/2000/svg">
<path d="M20.6448 3.83858C20.2775 3.44674 20.0815 3.00592 20.0815 2.46715C20.0815 1.92837 20.2775 1.46307 20.6448 1.09572C21.0366 0.703883 21.502 0.507965 22.0407 0.507965C22.555 0.507965 23.0203 0.703883 23.4122 1.07123C23.804 1.43858 23.9999 1.90388 23.9999 2.44266C23.9999 2.98143 23.804 3.44674 23.4122 3.81409C23.0203 4.18143 22.5795 4.37735 22.0407 4.37735C21.502 4.40184 21.0366 4.20592 20.6448 3.83858Z" fill="white"/>
<path d="M19.7388 13.0712C19.249 12.508 16.8245 9.93654 13.249 8.71205L13.8367 8.02633C14.9388 8.39368 16.5306 9.20184 17.5102 9.91205L19.9592 7.07123C19.9592 7.07123 21.0857 5.65082 20.3265 4.45082C19.8367 3.64266 18.9796 3.5447 18.6367 3.5447H18.6122H9.86939C9.25714 3.5447 8.76735 4.0345 8.76735 4.64674C8.76735 5.25899 9.25714 5.74878 9.86939 5.74878H15.7959L13.8367 8.02633C12.7347 7.6345 11.5102 7.3896 10.2122 7.41409C9.47755 7.43858 8.81633 7.56103 8.25306 7.75695C7.49388 6.85082 7.07755 5.9447 7.07755 5.92021L6.31837 6.23858C6.34286 6.31205 6.73469 7.1447 7.4449 8.07531C6.85714 8.3447 6.31837 8.66307 5.82857 8.95695C5.33878 9.25082 4.84898 9.5447 4.40816 9.71613C1.76327 10.5978 0.759184 8.95694 0.710204 8.90797L0 9.32429C0.0244898 9.34878 1.37143 11.6018 4.67755 10.5243C5.19184 10.3039 5.70612 10.01 6.22041 9.69164C6.78367 9.34878 7.34694 9.00593 7.98367 8.76103C8.44898 9.25082 9.03673 9.69164 9.69796 10.01C10.3592 10.3039 11.0204 10.4998 11.5837 10.6223L9.3551 13.2182H4.89796C4.53061 13.2182 4.21224 13.3406 3.96735 13.561C3.72245 13.7814 3.6 14.0998 3.6 14.4427C3.6 14.7855 3.72245 15.0794 3.96735 15.3243C4.21224 15.5692 4.53061 15.6916 4.87347 15.6916H10.1388C10.3592 15.6916 10.5551 15.6671 10.7265 15.6427C11.1673 15.5692 11.4857 15.4223 11.6571 15.2263L14.1551 12.5325C14.1551 12.5325 16.5796 13.659 17.6327 14.7855C19.5673 16.8671 19.2735 20.9325 19.249 21.0059C19.2245 21.5447 19.7633 22.3529 20.6204 22.2304C21.3551 22.1325 21.649 21.4223 21.649 20.81C21.649 20.761 21.9184 15.6916 19.7388 13.0712ZM12.2449 9.88756C11.6327 9.7896 10.8735 9.59368 10.0653 9.22633C9.62449 9.03041 9.23265 8.76103 8.8898 8.44266C9.30612 8.3447 9.74694 8.27123 10.2367 8.24674C11.2898 8.22225 12.3184 8.41817 13.249 8.71205L12.2449 9.88756Z" fill="white"/>
</svg>
