<svg width="24" height="12" viewBox="0 0 24 12" fill="none" xmlns="http://www.w3.org/2000/svg">
<path d="M19.8843 5.85124C18.0991 5.85124 16.6611 7.23967 16.6611 8.92562V11.3554C16.6611 11.7025 16.9587 12 17.3058 12C17.6529 12 17.9504 11.7025 17.9504 11.3554V8.92562C17.9504 7.98347 18.7934 7.19008 19.8347 7.19008H20.7272C21.7686 7.19008 22.6115 7.98347 22.6115 8.92562V11.3554C22.6115 11.7025 22.9091 12 23.2562 12C23.6033 12 23.9008 11.7025 23.9008 11.3554V8.92562C23.9008 7.23967 22.4628 5.85124 20.6777 5.85124C20.7768 5.85124 19.8843 5.85124 19.8843 5.85124Z" fill="#78BE21"/>
<path d="M17.752 2.57851C17.752 4.01653 18.942 5.15702 20.3305 5.15702C21.7189 5.15702 22.909 3.96694 22.909 2.57851C22.909 1.19008 21.7685 0 20.3305 0C18.8924 0 17.752 1.19008 17.752 2.57851ZM21.6197 2.57851C21.6197 3.27273 21.0743 3.86777 20.3305 3.86777C19.5867 3.86777 19.0412 3.32231 19.0412 2.57851C19.0412 1.83471 19.5867 1.28926 20.3305 1.28926C21.0247 1.33884 21.6197 1.8843 21.6197 2.57851Z" fill="#78BE21"/>
<path d="M4.56196 7.19008C5.60329 7.19008 6.44626 7.98347 6.44626 8.92562V11.3554C6.44626 11.7025 6.74378 12 7.09089 12C7.438 12 7.73552 11.7025 7.73552 11.3554V8.92562C7.73552 7.23967 6.2975 5.85124 4.51238 5.85124H3.71899C1.93387 5.85124 0.49585 7.23967 0.49585 8.92562V11.3554C0.49585 11.7025 0.79337 12 1.14048 12C1.48759 12 1.78511 11.7025 1.78511 11.3554V8.92562C1.78511 7.98347 2.62808 7.19008 3.6694 7.19008C3.71899 7.19008 4.56196 7.19008 4.56196 7.19008Z" fill="#78BE21"/>
<path d="M4.16521 5.20661C5.60322 5.20661 6.74372 4.01653 6.74372 2.6281C6.74372 1.23967 5.55364 0.0495834 4.16521 0.0495834C2.77678 0.0495834 1.53711 1.19008 1.53711 2.6281C1.53711 4.06611 2.72719 5.20661 4.16521 5.20661ZM4.16521 1.33884C4.85942 1.33884 5.45446 1.88429 5.45446 2.6281C5.45446 3.3719 4.85942 3.91735 4.16521 3.91735C3.47099 3.91735 2.87595 3.32231 2.87595 2.6281C2.87595 1.93388 3.47099 1.33884 4.16521 1.33884Z" fill="#78BE21"/>
<path d="M15.8679 11.3554V8.92562C15.8679 7.23967 14.4299 5.85124 12.6448 5.85124H11.7522C9.96707 5.85124 8.52905 7.23967 8.52905 8.92562V11.3554C8.52905 11.7025 8.82657 12 9.17368 12C9.52079 12 9.81831 11.7025 9.81831 11.3554V8.92562C9.81831 7.98347 10.6613 7.19008 11.7026 7.19008H12.5952C13.6365 7.19008 14.4795 7.98347 14.4795 8.92562V11.3554C14.4795 11.7025 14.777 12 15.1241 12C15.4712 12 15.8679 11.7025 15.8679 11.3554Z" fill="#78BE21"/>
<path d="M9.61987 2.6281C9.61987 4.06611 10.81 5.20661 12.1984 5.20661C13.5868 5.20661 14.7769 4.01653 14.7769 2.6281C14.7769 1.23967 13.5868 0.0495834 12.1984 0.0495834C10.81 0.0495834 9.61987 1.19008 9.61987 2.6281ZM13.4876 2.6281C13.4876 3.32231 12.9422 3.91735 12.1984 3.91735C11.4546 3.91735 10.9091 3.3719 10.9091 2.6281C10.9091 1.88429 11.4546 1.33884 12.1984 1.33884C12.9422 1.33884 13.4876 1.93388 13.4876 2.6281Z" fill="#78BE21"/>
</svg>
